inDegrees=no
num_controls=7
num_derivatives=13
num_iterations=106
num_multipliers=7
num_parameters=0
num_slacks=7
num_states=26
objective=0.466869
objective_accelerations=0.066057
objective_balance=0.002142
objective_effort=0.021233
objective_height=0.367802
objective_ligament=0.009635
solver_duration=1485.525118
status=Solve_Succeeded
success=true
DataType=double
version=3
OpenSimVersion=4.5
endheader
time	/jointset/ground_pelvis/pelvis_tilt/value	/jointset/ground_pelvis/pelvis_tx/value	/jointset/ground_pelvis/pelvis_ty/value	/jointset/hip_l/hip_flexion_l/value	/jointset/hip_l/hip_adduction_l/value	/jointset/hip_l/hip_rotation_l/value	/jointset/back/lumbar_extension/value	/jointset/patellofemoral_l/patellar_flexion_l/value	/jointset/knee_l/knee_flexion_l/value	/jointset/knee_l/knee_adduction_l/value	/jointset/knee_l/knee_rotation_l/value	/jointset/ankle_l/ankle_angle_l/value	/jointset/subtalar_l/subtalar_angle_l/value	/jointset/ground_pelvis/pelvis_tilt/speed	/jointset/ground_pelvis/pelvis_tx/speed	/jointset/ground_pelvis/pelvis_ty/speed	/jointset/hip_l/hip_flexion_l/speed	/jointset/hip_l/hip_adduction_l/speed	/jointset/hip_l/hip_rotation_l/speed	/jointset/back/lumbar_extension/speed	/jointset/patellofemoral_l/patellar_flexion_l/speed	/jointset/knee_l/knee_flexion_l/speed	/jointset/knee_l/knee_adduction_l/speed	/jointset/knee_l/knee_rotation_l/speed	/jointset/ankle_l/ankle_angle_l/speed	/jointset/subtalar_l/subtalar_angle_l/speed	/forceset/tau_hip_flexion_l	/forceset/tau_hip_adduction_l	/forceset/tau_hip_rotation_l	/forceset/tau_knee_flexion_l	/forceset/tau_ankle_angle_l	/forceset/tau_subtalar_angle_l	/forceset/tau_lumbar_extension	lambda_cid13_p0	lambda_cid13_p1	lambda_cid13_p2	lambda_cid13_p3	lambda_cid13_p4	lambda_cid13_p5	lambda_cid14_p0	/jointset/ground_pelvis/pelvis_tilt/accel	/jointset/ground_pelvis/pelvis_tx/accel	/jointset/ground_pelvis/pelvis_ty/accel	/jointset/hip_l/hip_flexion_l/accel	/jointset/hip_l/hip_adduction_l/accel	/jointset/hip_l/hip_rotation_l/accel	/jointset/back/lumbar_extension/accel	/jointset/patellofemoral_l/patellar_flexion_l/accel	/jointset/knee_l/knee_flexion_l/accel	/jointset/knee_l/knee_adduction_l/accel	/jointset/knee_l/knee_rotation_l/accel	/jointset/ankle_l/ankle_angle_l/accel	/jointset/subtalar_l/subtalar_angle_l/accel	gamma_cid13_p0	gamma_cid13_p1	gamma_cid13_p2	gamma_cid13_p3	gamma_cid13_p4	gamma_cid13_p5	gamma_cid14_p0
1.5	-0.5750989350686091	-0.04822270922525788	0.7822497556317047	1.2531548284169	-0.348399213597624	-0.106613177263869	-0.3474510472372255	0.5971053945998231	0.5971053945997817	-0.05691698766314698	-0.1744860272118485	0.01630742699566456	0.07842483969159088	1.115622067420959	0.5071030173327071	0.5083455691239914	-2.932970548971889	-0.01000494895117719	-0.5399409859065052	0.593830380971694	-1.619119537894541	-1.619119537894596	-0.2239303008398948	0.001943967831710009	0.08198826232917482	0.02046099590818101	-0.2101164560318875	0.01683668563719928	0.007171492833049956	-0.06747141645263219	0.03827119287764314	0.01010697793625555	0.1702314212628533	-11.50221136597784	-4.498085503064554	2.860603216959423	-8.215973727284561	-430.0493352022149	-59.72489543705309	-19.12392052534038	0.8925470509207925	0.9352018947573066	-0.6292746229683847	-1.895346031576098	0.2591519295391674	-0.2927900957404763	1.955069152158234	-0.6586474350970386	-0.6586474350970193	-0.3769016177503163	0.1687882326100001	0.2800480293046829	0.3531859412410693	-1.321278385736766e-08	1.624170158764231e-06	2.000448566814751e-07	3.386922346228667e-07	2.54010468020269e-07	-1.947445961526707e-07	2.534254163723989e-07
1.51	-0.5638988624347732	-0.04310539159394658	0.7873007363420739	1.22373282659704	-0.3484871536921555	-0.112029809148094	-0.3414166970329731	0.5808832635277349	0.5808832635276787	-0.05917527302564726	-0.1744614602983073	0.01714134024632207	0.07864628575544386	1.124212019125199	0.5162997082921087	0.5017417757123399	-2.95103991185417	-0.007565045665426645	-0.5433345659188956	0.6129781169400127	-1.625096887879212	-1.625096887879167	-0.2276870082057393	0.002989366499598614	0.08481294083151895	0.02385264063656525	-0.2030325186319715	0.01632271053743659	0.007563995309063147	-0.06598760923152902	0.03544776341368989	0.009039223081525357	0.1650482637051973	-12.2562880098752	-4.097367931697797	3.019502373098273	-7.627943518298024	-426.035286712245	-59.34301556036631	-19.69934861696519	0.8151742722580504	0.9028570125986103	-0.6922032088629486	-1.704222168970496	0.2387664822023058	-0.3548440488078619	1.885394378339478	-0.5358606863358975	-0.5358606863209264	-0.3687214110252	0.07539292622603683	0.2865164752967285	0.3354892444025686	-3.070318773549307e-08	1.747299752851526e-06	3.078257623160112e-07	3.607135312760478e-07	2.450176836343303e-07	-1.706918084617163e-07	2.518341561055048e-07
1.52	-0.5526182992754787	-0.03789791618982789	0.7922824248166066	1.194141832997874	-0.3485502233630072	-0.1174788172514067	-0.3351927157572036	0.5646076425745563	0.5646076425745006	-0.0614698586847985	-0.174425843949623	0.01800406802492289	0.07890231536773379	1.131720172512741	0.5251345718941851	0.4944871219567261	-2.966768904833105	-0.005030864215304908	-0.546416229724069	0.6317565952751657	-1.629817514111234	-1.629817514111089	-0.2311903601725312	0.004153854861395442	0.08775116791776215	0.02737770559556815	-0.1959485812320625	0.01580873543767449	0.007956497785130369	-0.06450380201042463	0.0326243339497389	0.007971468226795973	0.1598651061475316	-13.01404426846809	-3.693769094686973	3.17538710215927	-7.02097665999769	-422.0720173745598	-58.98958239635224	-20.25546338715349	0.6761873875812393	0.8628364232923675	-0.7594466917608274	-1.427272050907017	0.2780075624133835	-0.2304068542971055	1.881217625525073	-0.4073026845672524	-0.407302684567277	-0.3262305379398426	0.1926061713915815	0.3027577460845539	0.3798699873647982	-6.399012279233537e-10	1.702604904141201e-06	3.818979386517109e-08	3.401085657974943e-07	3.222057326026693e-07	-1.510552680957278e-07	2.814588762801578e-07
1.53	-0.5412678049234194	-0.03260409426110567	0.7971883636612842	1.164404958661799	-0.3485882387299196	-0.1229549840550202	-0.3287833884179124	0.5482908774991554	0.5482908774991319	-0.06380063986883076	-0.1743766439168032	0.01889627932132621	0.07919331837219287	1.138193598306166	0.5335456738733647	0.4865941094942512	-2.980180900598017	-0.002556079147652063	-0.5487633030178869	0.6500156478626827	-1.633315869336447	-1.633315869336428	-0.2349153984735198	0.005707216729647475	0.09069016415655168	0.03083975551784847	-0.1889948265154386	0.01502136055733457	0.0083251462365556	-0.06258095995609705	0.02893888133165659	0.007132024052817223	0.1546648767665171	-14.04248254727635	-3.361411920718473	3.364881008470961	-6.097782975177299	-418.1121182492258	-58.77115885663558	-20.78919888243805	0.6051982422774278	0.8176738760021386	-0.8200928852354068	-1.23435084146657	0.2345046578744224	-0.2284748934462158	1.784265367290706	-0.2882327698500852	-0.2882327698689841	-0.3878584937118573	0.1396128738204785	0.289370138856377	0.3318043237413651	7.994918131444686e-08	1.479596584958407e-06	-6.324516033013769e-07	2.742131968039733e-07	4.909609170099273e-07	-1.361109905125156e-07	3.442505756739543e-07
1.54	-0.5298581207000151	-0.02722867595443744	0.8020121995089883	1.134546726867638	-0.3486010481103681	-0.1284529450568754	-0.322194267294361	0.5319457027058296	0.5319457027058425	-0.0661671150393842	-0.1743113279294365	0.0198178604953339	0.07951942824169114	1.143558146781764	0.5414538474833881	0.4780665225620145	-2.99104039645026	1.033307732586838e-05	-0.5507750693725886	0.6677153521272302	-1.635499457695726	-1.635499457695833	-0.2383291574758469	0.007377045769036545	0.09362514343855129	0.03439907860339764	-0.1820410717988152	0.01423398567700003	0.008693794687972477	-0.06065811790176368	0.02525342871357879	0.006292579878845105	0.1494646473854975	-15.07481179496629	-3.02919893090821	3.555341560657457	-5.163288924260238	-414.2096531538398	-58.6206460912948	-21.2975184849451	0.4544119240159791	0.7622507494611633	-0.8863615857132183	-0.9167720683730324	0.2963329938783813	-0.1633454664739254	1.769347960931169	-0.1443493113802605	-0.1443493113802507	-0.2639746782075412	0.2158996056189231	0.3019543547266293	0.3993246200185656	1.206486010643223e-07	1.449786407245423e-06	-9.633707152779644e-07	2.463678268640032e-07	6.008561943390729e-07	-1.094809684094008e-07	3.84660627417309e-07
1.55	-0.5184003891365615	-0.02177672971318705	0.8067476894192925	1.104592552881234	-0.3485879483111344	-0.1339696627341407	-0.3154314022799657	0.5155851385686423	0.5155851385686538	-0.06856648001692886	-0.174229114814198	0.02076869255300201	0.07988137829295779	1.147789199668683	0.5488461637671944	0.4689319775861995	-2.999350467441661	0.002607979143595298	-0.5524719831327289	0.6847288943109829	-1.636383023387025	-1.636383023386941	-0.2415331869617376	0.009108242107500166	0.09654265871321227	0.03798980915581749	-0.1747929455458059	0.01342016036198648	0.009019410065010027	-0.05938379907288795	0.02265624686040079	0.004872043696620722	0.1440273450071703	-15.79764084205154	-2.474618993687058	3.682719145966027	-4.448056525954732	-410.4455543917152	-58.1133127876595	-21.77787863000034	0.3776458804809475	0.7143907677879651	-0.9417899780841154	-0.7214842495070543	0.2410239705186666	-0.1580671943071322	1.648043880955386	-0.0258897261531952	-0.02588972612460677	-0.346735042081419	0.1578896384187479	0.2869093513182809	0.3386058523306787	1.153881919445867e-07	1.642574088182425e-06	-9.02870672579184e-07	2.62362673224861e-07	6.429346222086579e-07	-6.938693631596448e-08	3.992831286068956e-07
1.56	-0.5069063082623487	-0.01625352656910913	0.8113888760749248	1.074568606257919	-0.3485489633397336	-0.1395003901217137	-0.3085022645369616	0.4992226328689126	0.499222632868926	-0.07099750888099643	-0.1741283577374755	0.02174875161091349	0.08027916736564406	1.150828008933649	0.555705228048893	0.4592058716276687	-3.004994923832397	0.005187367510562604	-0.5535770114337905	0.7009698978490613	-1.635887770204263	-1.635887770203989	-0.2446619347796915	0.01108583806430938	0.09947054348717203	0.04156688288731674	-0.1675448192928027	0.01260633504696678	0.009345025442023447	-0.05810948024400906	0.0200590650072235	0.003451507514390526	0.1385900426288365	-16.5230586556233	-1.9193974826152	3.8097803347024	-3.7238717431691	-406.7144085180034	-57.66822251392019	-22.23110111987647	0.2159631996254412	0.6556003490396715	-1.004673782256366	-0.3836491482398492	0.2926814540179429	-0.04496837465820149	1.614840231796316	0.1314144634317403	0.1314144634317406	-0.2489183446202048	0.2651795292879935	0.3040282545864442	0.396593255834449	1.109378245373486e-07	1.776006899210379e-06	-8.649058827656527e-07	2.69970656241944e-07	6.849962251086648e-07	-2.504775430898635e-08	4.073026544540425e-07
1.57	-0.4953878026658907	-0.01066460003960114	0.8159299331227791	1.044501655727961	-0.3484842046211167	-0.1450396022957706	-0.3014149554162798	0.4828718643707067	0.4828718643707184	-0.0734591555890918	-0.1740068347755063	0.0227579102755106	0.08071266754383744	1.152667724132027	0.5619698183035731	0.4489129539331994	-3.00791550623161	0.00776438552539058	-0.5541839473513605	0.7163306152485514	-1.634023419141956	-1.634023419141745	-0.2476331735727948	0.01324361997382384	0.1023476539962282	0.04512966474584307	-0.1604477139460251	0.01158958914538284	0.009643188703376332	-0.05666109666156098	0.01702498159033698	0.002064934306255969	0.1331812945565814	-17.40435457533251	-1.362148250054545	3.948528235474406	-2.786862563902107	-403.1994645596639	-57.25332926272393	-22.65679761927182	0.1372013665018879	0.5954025193240761	-1.055338116128259	-0.1742647666626507	0.2399807306604393	-0.05601213047144442	1.472490838199157	0.2502405851051637	0.2502405850956881	-0.3157904060478595	0.194569017823915	0.2775747479761344	0.3354033369447681	1.075000092707325e-07	1.835246122852023e-06	-8.551101590586825e-07	2.670950600793085e-07	7.270367967966987e-07	2.459786508991894e-08	4.0706846112314e-07
1.58	-0.4838570547801377	-0.005016324776418029	0.8203653135230714	1.014419898977829	-0.3483937219712616	-0.1505823750150388	-0.2941788784527687	0.4665469984146214	0.4665469984146285	-0.07594942743700284	-0.1738630356952217	0.02379544450498066	0.08118165207783272	1.153276466792725	0.5675749747839166	0.4380705421153072	-3.007956167866847	0.01033215375802861	-0.5542891204755316	0.7307234664149966	-1.630707261780652	-1.630707261780504	-0.250386962741597	0.01554106172496739	0.1051456564617222	0.04866375404769117	-0.1533506085992627	0.01057284324378728	0.009941351964684266	-0.05521271307911101	0.01399089817344962	0.0006783610981096753	0.1277725464843128	-18.28763075113684	-0.8037930566118144	4.086233617668579	-1.844001924169194	-399.7081505043056	-56.89586385262788	-23.05456792113977	-0.03023130791042769	0.5237135941724128	-1.11457260694094	0.1923350045553743	0.2908314975799447	0.05538418402151518	1.421266985187374	0.4217757232310583	0.4217757232310592	-0.205428419759998	0.2931114976137764	0.2882066458740504	0.3908547444988114	1.017152083763053e-07	1.927386825735446e-06	-8.290919520426469e-07	2.690627917479648e-07	7.653592432852483e-07	7.439717706505537e-08	4.090041213555032e-07
